# Blender 5.1.1
# www.blender.org
mtllib lancher.mtl
o Cube
v -1.070875 0.000000 0.618093
v 2.000000 1.200000 -1.200000
v 2.000000 -1.200000 -1.200000
v -1.070875 0.120584 0.606217
v 2.000000 1.200000 1.200000
v 2.000000 -1.200000 1.200000
v -2.000000 1.200000 -1.200000
v -1.070875 0.236534 0.571043
v -2.000000 -1.200000 -1.200000
v -2.000000 1.200000 1.200000
v -1.070875 0.343394 0.513926
v -2.000000 -1.200000 1.200000
v -1.070875 0.437058 0.437058
v -1.070875 0.513926 0.343394
v -1.070875 0.571043 0.236534
v -1.070875 0.606216 0.120584
v -1.070875 0.618093 0.000000
v -1.070875 0.606216 -0.120584
v -1.070875 0.571043 -0.236534
v -1.070875 0.513926 -0.343394
v -1.070875 0.437058 -0.437058
v -1.070875 0.343394 -0.513926
v -1.070875 0.236534 -0.571043
v -1.070875 0.120584 -0.606217
v -1.070875 0.000000 -0.618093
v -1.070875 -0.120584 -0.606217
v -1.070875 -0.236534 -0.571043
v -1.070875 -0.343394 -0.513926
v -1.070875 -0.437058 -0.437058
v -1.070875 -0.513926 -0.343394
v -1.070875 -0.571043 -0.236534
v -1.070875 -0.606216 -0.120584
v -1.070875 -0.618093 0.000000
v -1.070875 -0.606216 0.120584
v -1.070875 -0.571043 0.236534
v -1.070875 -0.513926 0.343394
v -1.070875 -0.437058 0.437058
v -1.070875 -0.343394 0.513926
v -1.070875 -0.236534 0.571043
v -1.070875 -0.120584 0.606217
v 2.000000 0.513926 0.343394
v 2.000000 0.606216 0.120584
v 2.000000 0.571043 0.236534
v 2.000000 0.606216 -0.120584
v 2.000000 0.513926 -0.343394
v 2.000000 0.571043 -0.236534
v 2.000000 0.618093 0.000000
v 2.000000 -0.343394 -0.513926
v 2.000000 0.343394 -0.513926
v 2.000000 0.000000 -0.618093
v 2.000000 -0.120584 -0.606217
v 2.000000 0.120584 -0.606217
v 2.000000 0.236534 -0.571043
v 2.000000 -0.437058 -0.437058
v 2.000000 -0.236534 -0.571043
v 2.000000 0.437058 -0.437058
v 2.000000 0.000000 0.618093
v 2.000000 0.120584 0.606217
v 2.000000 -0.120584 0.606217
v 2.000000 -0.343394 0.513926
v 2.000000 0.343394 0.513926
v 2.000000 -0.437058 0.437058
v 2.000000 -0.236534 0.571043
v 2.000000 0.236534 0.571043
v 2.000000 -0.606216 0.120584
v 2.000000 -0.571043 0.236534
v 2.000000 -0.513926 0.343394
v 2.000000 -0.606216 -0.120584
v 2.000000 -0.513926 -0.343394
v 2.000000 -0.618093 0.000000
v 2.000000 -0.571043 -0.236534
v 2.000000 0.437058 0.437058
vn -0.0000 1.0000 -0.0000
vn -0.0000 -0.0000 1.0000
vn -1.0000 -0.0000 -0.0000
vn -0.0000 -1.0000 -0.0000
vn 1.0000 -0.0000 -0.0000
vn -0.0000 -0.0000 -1.0000
vn -0.0000 -0.0980 -0.9952
vn -0.0000 -0.2903 -0.9569
vn -0.0000 -0.4714 -0.8819
vn -0.0000 -0.6344 -0.7730
vn -0.0000 -0.7730 -0.6344
vn -0.0000 -0.8819 -0.4714
vn -0.0000 -0.9569 -0.2903
vn -0.0000 -0.9952 -0.0980
vn -0.0000 -0.9952 0.0980
vn -0.0000 -0.9569 0.2903
vn -0.0000 -0.8819 0.4714
vn -0.0000 -0.7730 0.6344
vn -0.0000 -0.6344 0.7730
vn -0.0000 -0.4714 0.8819
vn -0.0000 -0.2903 0.9569
vn -0.0000 -0.0980 0.9952
vn -0.0000 0.0980 0.9952
vn -0.0000 0.2903 0.9569
vn -0.0000 0.4714 0.8819
vn -0.0000 0.6344 0.7730
vn -0.0000 0.7730 0.6344
vn -0.0000 0.8819 0.4714
vn -0.0000 0.9569 0.2903
vn -0.0000 0.9952 0.0980
vn -0.0000 0.9952 -0.0980
vn -0.0000 0.9569 -0.2903
vn -0.0000 0.8819 -0.4714
vn -0.0000 0.7730 -0.6344
vn -0.0000 0.6344 -0.7730
vn -0.0000 0.4714 -0.8819
vn -0.0000 0.2903 -0.9569
vn -0.0000 0.0980 -0.9952
vt 0.625000 0.500000
vt 0.875000 0.500000
vt 0.875000 0.750000
vt 0.625000 0.750000
vt 0.375000 0.750000
vt 0.625000 1.000000
vt 0.375000 1.000000
vt 0.375000 0.000000
vt 0.625000 0.000000
vt 0.625000 0.250000
vt 0.375000 0.250000
vt 0.125000 0.500000
vt 0.375000 0.500000
vt 0.125000 0.750000
vt 0.454473 0.579473
vt 0.545527 0.670527
vt 0.553534 0.660770
vt 0.559484 0.649639
vt 0.563148 0.637561
vt 0.564385 0.625000
vt 0.563148 0.612439
vt 0.559484 0.600361
vt 0.553534 0.589230
vt 0.545527 0.579473
vt 0.535770 0.571466
vt 0.524639 0.565516
vt 0.512561 0.561852
vt 0.500000 0.560615
vt 0.487439 0.561852
vt 0.475361 0.565516
vt 0.464230 0.571466
vt 0.446466 0.589230
vt 0.440516 0.600361
vt 0.436852 0.612439
vt 0.435615 0.625000
vt 0.436852 0.637561
vt 0.440516 0.649639
vt 0.446466 0.660770
vt 0.454473 0.670527
vt 0.464230 0.678534
vt 0.475361 0.684484
vt 0.487439 0.688148
vt 0.500000 0.689385
vt 0.512561 0.688148
vt 0.524639 0.684484
vt 0.535770 0.678534
vt 1.000000 0.500000
vt 0.968750 0.500000
vt 0.968750 0.951599
vt 1.000000 0.951599
vt 0.937500 0.500000
vt 0.937500 0.951599
vt 0.906250 0.500000
vt 0.906250 0.951599
vt 0.875000 0.951599
vt 0.843750 0.500000
vt 0.843750 0.951599
vt 0.812500 0.500000
vt 0.812500 0.951599
vt 0.781250 0.500000
vt 0.781250 0.951599
vt 0.750000 0.500000
vt 0.750000 0.951599
vt 0.718750 0.500000
vt 0.718750 0.951599
vt 0.687500 0.500000
vt 0.687500 0.951599
vt 0.656250 0.500000
vt 0.656250 0.951599
vt 0.625000 0.951599
vt 0.593750 0.500000
vt 0.593750 0.951599
vt 0.562500 0.500000
vt 0.562500 0.951599
vt 0.531250 0.500000
vt 0.531250 0.951599
vt 0.500000 0.500000
vt 0.500000 0.951599
vt 0.468750 0.500000
vt 0.468750 0.951599
vt 0.437500 0.500000
vt 0.437500 0.951599
vt 0.406250 0.500000
vt 0.406250 0.951599
vt 0.375000 0.951599
vt 0.343750 0.500000
vt 0.343750 0.951599
vt 0.312500 0.500000
vt 0.312500 0.951599
vt 0.281250 0.500000
vt 0.281250 0.951599
vt 0.250000 0.500000
vt 0.250000 0.951599
vt 0.218750 0.500000
vt 0.218750 0.951599
vt 0.187500 0.500000
vt 0.187500 0.951599
vt 0.156250 0.500000
vt 0.156250 0.951599
vt 0.125000 0.951599
vt 0.093750 0.500000
vt 0.093750 0.951599
vt 0.062500 0.500000
vt 0.062500 0.951599
vt 0.031250 0.500000
vt 0.031250 0.951599
vt 0.000000 0.500000
vt 0.000000 0.951599
vt 0.883337 0.449553
vt 0.841844 0.471731
vt 0.796822 0.485388
vt 0.750000 0.490000
vt 0.703178 0.485388
vt 0.658156 0.471731
vt 0.616663 0.449553
vt 0.580294 0.419706
vt 0.550447 0.383337
vt 0.528269 0.341844
vt 0.514612 0.296822
vt 0.510000 0.250000
vt 0.514612 0.203178
vt 0.528269 0.158156
vt 0.550447 0.116663
vt 0.580294 0.080294
vt 0.616663 0.050447
vt 0.658156 0.028269
vt 0.703178 0.014612
vt 0.750000 0.010000
vt 0.796822 0.014612
vt 0.841844 0.028269
vt 0.883337 0.050447
vt 0.919706 0.080294
vt 0.949553 0.116663
vt 0.971731 0.158156
vt 0.985388 0.203178
vt 0.990000 0.250000
vt 0.985388 0.296822
vt 0.971731 0.341844
vt 0.949553 0.383337
vt 0.919706 0.419706
s 0
usemtl Material
f 2/1/1 7/2/1 10/3/1 5/4/1
f 6/5/2 5/4/2 10/6/2 12/7/2
f 12/8/3 10/9/3 7/10/3 9/11/3
f 9/12/4 3/13/4 6/5/4 12/14/4
f 54/15/5 3/13/5 2/1/5 5/4/5 72/16/5 41/17/5 43/18/5 42/19/5 47/20/5 44/21/5 46/22/5 45/23/5 56/24/5 49/25/5 53/26/5 52/27/5 50/28/5 51/29/5 55/30/5 48/31/5
f 5/4/5 6/5/5 3/13/5 54/15/5 69/32/5 71/33/5 68/34/5 70/35/5 65/36/5 66/37/5 67/38/5 62/39/5 60/40/5 63/41/5 59/42/5 57/43/5 58/44/5 64/45/5 61/46/5 72/16/5
f 9/11/6 7/10/6 2/1/6 3/13/6
f 1/47/7 4/48/7 58/49/7 57/50/7
f 4/48/8 8/51/8 64/52/8 58/49/8
f 8/51/9 11/53/9 61/54/9 64/52/9
f 11/53/10 13/2/10 72/55/10 61/54/10
f 13/2/11 14/56/11 41/57/11 72/55/11
f 14/56/12 15/58/12 43/59/12 41/57/12
f 15/58/13 16/60/13 42/61/13 43/59/13
f 16/60/14 17/62/14 47/63/14 42/61/14
f 17/62/15 18/64/15 44/65/15 47/63/15
f 18/64/16 19/66/16 46/67/16 44/65/16
f 19/66/17 20/68/17 45/69/17 46/67/17
f 20/68/18 21/1/18 56/70/18 45/69/18
f 21/1/19 22/71/19 49/72/19 56/70/19
f 22/71/20 23/73/20 53/74/20 49/72/20
f 23/73/21 24/75/21 52/76/21 53/74/21
f 24/75/22 25/77/22 50/78/22 52/76/22
f 25/77/23 26/79/23 51/80/23 50/78/23
f 26/79/24 27/81/24 55/82/24 51/80/24
f 27/81/25 28/83/25 48/84/25 55/82/25
f 28/83/26 29/13/26 54/85/26 48/84/26
f 29/13/27 30/86/27 69/87/27 54/85/27
f 30/86/28 31/88/28 71/89/28 69/87/28
f 31/88/29 32/90/29 68/91/29 71/89/29
f 32/90/30 33/92/30 70/93/30 68/91/30
f 33/92/31 34/94/31 65/95/31 70/93/31
f 34/94/32 35/96/32 66/97/32 65/95/32
f 35/96/33 36/98/33 67/99/33 66/97/33
f 36/98/34 37/12/34 62/100/34 67/99/34
f 37/12/35 38/101/35 60/102/35 62/100/35
f 38/101/36 39/103/36 63/104/36 60/102/36
f 39/103/37 40/105/37 59/106/37 63/104/37
f 40/105/38 1/107/38 57/108/38 59/106/38
f 11/109/5 8/110/5 4/111/5 1/112/5 40/113/5 39/114/5 38/115/5 37/116/5 36/117/5 35/118/5 34/119/5 33/120/5 32/121/5 31/122/5 30/123/5 29/124/5 28/125/5 27/126/5 26/127/5 25/128/5 24/129/5 23/130/5 22/131/5 21/132/5 20/133/5 19/134/5 18/135/5 17/136/5 16/137/5 15/138/5 14/139/5 13/140/5
